<?xml version="1.0" encoding="UTF-8"?>
<svg version="1.1" xmlns="http://www.w3.org/2000/svg" width="512" height="512">
<rect width="512" height="512" rx="56" ry="56" fill="#202020"/>
<path d="M0 0 C78.78177767 0 78.78177767 0 92.16015625 12.89453125 C98.79150921 20.48327699 100.29799761 30.00374164 100.30639648 39.7800293 C100.31472 40.61862991 100.32304352 41.45723053 100.33161926 42.32124329 C100.35555995 45.07228346 100.36447259 47.8230857 100.37109375 50.57421875 C100.38007349 52.50462407 100.38919555 54.43502873 100.39845276 56.36543274 C100.41490303 60.40599247 100.4226354 64.44646975 100.42553711 68.48706055 C100.43091101 73.63353178 100.46856741 78.7792145 100.51428127 83.92546368 C100.54420677 87.91236615 100.55126405 91.89908246 100.55226326 95.88608742 C100.55643629 97.78169165 100.56875152 99.67729797 100.58978081 101.57279015 C100.72725871 115.03771189 100.14882159 128.01289733 90.1328125 138.2890625 C66.17053345 157.51155009 24.51914621 149 0 149 C0 99.83 0 50.66 0 0 Z " fill="#EAEAEA" transform="translate(136,144)"/>
<path d="M0 0 C168.96 0 337.92 0 512 0 C512 168.96 512 337.92 512 512 C343.04 512 174.08 512 0 512 C0 343.04 0 174.08 0 0 Z M6 6 C6 170.67 6 335.34 6 505 C170.67 505 335.34 505 505 505 C505 340.33 505 175.66 505 6 C340.33 6 175.66 6 6 6 Z " fill="#202020" transform="translate(0,0)"/>
<path d="M0 0 C42.01421216 -0.1144503 84.02840633 -0.20255139 126.0427435 -0.25532665 C131.00318668 -0.26158016 135.96362955 -0.26805178 140.92407227 -0.2746582 C141.91160496 -0.27596976 142.89913766 -0.27728131 143.91659559 -0.2786326 C159.90551643 -0.30038773 175.89434737 -0.33980987 191.88321488 -0.38576398 C208.28990278 -0.4325256 224.69654359 -0.46029478 241.10329539 -0.47044247 C251.22675529 -0.47730224 261.34996105 -0.49896622 271.47334272 -0.53958233 C278.41581954 -0.56601704 285.35816501 -0.57399934 292.3006885 -0.56750689 C296.30592979 -0.56430512 300.31072707 -0.56920464 304.31588936 -0.59602737 C307.98598438 -0.62042626 311.65533841 -0.62154543 315.32546813 -0.60449447 C317.27534639 -0.60139395 319.2252164 -0.62289974 321.17496723 -0.64540654 C329.57059814 -0.57402652 335.65780322 0.86880319 341.84512371 6.75546378 C347.22076756 12.44615261 349.37221875 18.39158949 349.38768005 26.15914917 C349.39575836 27.18765069 349.39575836 27.18765069 349.40399987 28.23693001 C349.41821544 30.51605039 349.41119194 32.79458467 349.40405273 35.07373047 C349.40975972 36.7153164 349.41672525 38.35689837 349.42485046 39.99847412 C349.44276197 44.44486053 349.44161713 48.89104937 349.43590808 53.33746099 C349.43281293 57.05502935 349.4389124 60.77255994 349.44494683 64.49012291 C349.45898422 73.26379242 349.45743766 82.03736453 349.44604492 90.81103516 C349.43456781 99.84915453 349.4486343 108.88697704 349.4754414 117.92505729 C349.49762587 125.69684587 349.50422949 133.46854145 349.49836498 141.24035943 C349.49500037 145.87680237 349.49737731 150.51305509 349.51461601 155.14947128 C349.53012665 159.51134666 349.52608418 163.87278371 349.50731087 168.23464203 C349.50363617 169.83052362 349.50670068 171.42643797 349.51719666 173.02228928 C349.58376928 183.98589877 348.70773083 193.16645858 340.79659796 201.38785326 C333.01060752 208.37447985 323.08837497 207.5655951 313.29246521 207.50793457 C311.58685129 207.51254706 309.88124136 207.51890232 308.17563969 207.52684355 C303.50245996 207.54351198 298.82960779 207.53530182 294.15642703 207.52289867 C289.11137292 207.51384041 284.06637475 207.52782173 279.02133179 207.53881836 C269.14379359 207.55659946 259.26637701 207.55276551 249.38883405 207.5411678 C241.36136061 207.53213267 233.33392124 207.53090982 225.30644417 207.53526306 C223.59240167 207.53618246 223.59240167 207.53618246 221.84373205 207.53712043 C219.52235069 207.53839934 217.20096935 207.53969619 214.87958802 207.5410108 C193.11531367 207.55241527 171.35110673 207.53930469 149.58684344 207.51780933 C130.91178441 207.49993609 112.23682482 207.50304461 93.56176758 207.52148438 C71.8735902 207.54288928 50.18547189 207.55131917 28.49728543 207.53903532 C26.18477032 207.53776112 23.8722552 207.53650364 21.55974007 207.53526306 C20.42194311 207.53464596 19.28414616 207.53402886 18.11187051 207.53339306 C10.09345566 207.5299392 2.07507828 207.53576923 -5.94333076 207.54518127 C-15.71417878 207.55639828 -25.48489825 207.55336731 -35.25573153 207.5320583 C-40.2410381 207.52154432 -45.22613032 207.51743212 -50.21143532 207.53065491 C-54.77540466 207.54257713 -59.33896104 207.53601899 -63.90289294 207.5147447 C-65.55349143 207.51027796 -67.20412484 207.51254653 -68.85470087 207.52224785 C-78.35150187 207.57378234 -85.64269182 207.51341362 -93.20703125 201.140625 C-94.00173828 200.20476562 -94.00173828 200.20476562 -94.8125 199.25 C-95.62654297 198.32960938 -95.62654297 198.32960938 -96.45703125 197.390625 C-101.71796312 189.23951031 -101.41384855 181.27970094 -101.34057617 171.86328125 C-101.33972892 170.33502723 -101.34020696 168.80677199 -101.34190369 167.27851868 C-101.34276124 163.14885061 -101.32517455 159.0194462 -101.30418181 154.88983917 C-101.28537487 150.56703544 -101.28366141 146.24422506 -101.28010559 141.92138672 C-101.2707969 133.74404827 -101.2461991 125.56683074 -101.21605712 117.38954544 C-101.18247643 108.07637403 -101.16601789 98.76319671 -101.15097082 89.44997978 C-101.11964845 70.29991807 -101.06691091 51.14996877 -101 32 C-99.02 32 -97.04 32 -95 32 C-94.99780016 33.18718124 -94.99780016 33.18718124 -94.99555588 34.39834595 C-94.95847855 53.67033003 -94.89945152 72.94213298 -94.81609726 92.213974 C-94.77631486 101.53376549 -94.74391831 110.85347264 -94.72900391 120.17333984 C-94.71598325 128.29805129 -94.68900802 136.4225771 -94.64538693 144.54718399 C-94.6227814 148.84777456 -94.60708877 153.14813625 -94.60811615 157.4487915 C-94.6088633 161.50037817 -94.59089067 165.55145905 -94.55883217 169.60291481 C-94.55034424 171.08630884 -94.54857573 172.56975968 -94.55419731 174.05316734 C-94.76627361 185.2526991 -94.76627361 185.2526991 -90 195 C-84.36744481 200.58956602 -77.8197165 200.64202851 -70.26900715 200.65939283 C-68.68596194 200.64720262 -67.1029203 200.63454152 -65.5198822 200.62145996 C-63.8267917 200.62579118 -62.13370562 200.63230918 -60.44063097 200.64082003 C-55.79738538 200.6577989 -51.15467971 200.64363913 -46.51146257 200.62430525 C-41.50049479 200.60887258 -36.48959292 200.62228156 -31.47862244 200.63204956 C-21.66608386 200.64657555 -11.85375221 200.63434281 -2.04123323 200.61293632 C9.38441076 200.5889255 20.81000735 200.59064073 32.23567098 200.59324223 C52.62045449 200.59693242 73.00514051 200.57610625 93.38989258 200.54199219 C113.17344629 200.5088965 132.95689768 200.49473464 152.74047852 200.50097656 C174.28141261 200.50773951 195.82230384 200.50528336 217.3632316 200.48561716 C218.50213102 200.48457768 219.64103044 200.48353819 220.81444196 200.4824672 C223.10189675 200.4803763 225.38935151 200.47826533 227.67680626 200.47613403 C235.6425689 200.46923671 243.60831833 200.46856941 251.57408333 200.47001648 C261.27982939 200.47145569 270.98549198 200.46177416 280.69121034 200.43807012 C285.6439441 200.42620463 290.59656147 200.41908869 295.54930878 200.42490768 C300.08237119 200.43007627 304.61518764 200.4214027 309.14820796 200.40163308 C310.78872176 200.39689017 312.4292595 200.39719732 314.06976975 200.40304345 C316.29943554 200.41022179 318.52828558 200.39895407 320.75788975 200.38311005 C321.99637781 200.38153884 323.23486587 200.37996764 324.51088387 200.37834883 C329.11054792 199.87957566 333.12445361 198.60945056 336.70703125 195.53515625 C340.7808349 190.1082164 342.24855883 187.08582593 342.26742554 180.23284912 C342.27422221 179.2132595 342.27422221 179.2132595 342.28115618 178.1730721 C342.29381264 175.8962367 342.29217903 173.61964012 342.29052734 171.34277344 C342.29651193 169.70986117 342.30331732 168.07695173 342.31088257 166.44404602 C342.3285595 162.00792168 342.33323873 157.5718745 342.33451414 153.13571835 C342.33593564 150.36300542 342.34020526 147.59031212 342.34550858 144.81760406 C342.36401628 135.14092259 342.37217849 125.46429624 342.37060547 115.78759766 C342.3694047 106.77395846 342.39049237 97.76055898 342.4220928 88.74698043 C342.44826867 81.00415223 342.45897217 73.26140223 342.45769465 65.51853013 C342.45718529 60.89603392 342.46285377 56.27375059 342.48405075 51.65129852 C342.50345459 47.30097517 342.50354305 42.95106723 342.48901749 38.60072899 C342.48693076 37.007648 342.4916222 35.41454087 342.5037384 33.82150459 C342.87186981 22.17450728 342.87186981 22.17450728 338 12 C331.60866877 6.12782986 324.80890557 6.2905035 316.5098877 6.36076355 C315.14178769 6.35444567 313.77369634 6.345939 312.40562201 6.33544332 C308.66097747 6.31300569 304.91695161 6.32147684 301.17228842 6.3351289 C297.12871096 6.34440922 293.08525952 6.32483569 289.04171753 6.30880737 C282.04093289 6.28498672 275.04032429 6.27935376 268.039505 6.28615379 C257.91759781 6.29595899 247.79588562 6.27821061 237.67400998 6.25378648 C221.25109348 6.21490397 204.82823281 6.19823436 188.40527344 6.19555664 C172.45407244 6.19290822 156.50293666 6.17978418 140.55175781 6.15258789 C139.56815106 6.15091451 138.58454431 6.14924113 137.57113129 6.14751705 C132.63655254 6.13905744 127.70197418 6.13039205 122.76739597 6.12162435 C81.84494168 6.04917998 40.92251364 6.01279464 0 6 C0 4.02 0 2.04 0 0 Z " fill="#202020" transform="translate(135,113)"/>
<path d="M0 0 C30.03 0 60.06 0 91 0 C91 24.47176371 91 24.47176371 85.04345703 35.04168701 C83.08747989 38.71257649 81.55772625 42.56989953 79.96875 46.41015625 C79.24472644 48.1337227 78.52026815 49.85710658 77.79541016 51.58032227 C77.23554413 52.9175383 77.23554413 52.9175383 76.66436768 54.2817688 C74.61330703 59.18009126 72.55225833 64.0742117 70.4921875 68.96875 C70.05635345 70.00483902 69.62051941 71.04092804 69.17147827 72.1084137 C63.20263307 86.28689645 57.15956076 100.43386322 51.12280273 114.58352661 C50.15566441 116.85045302 49.18869041 119.11744953 48.22189331 121.38452148 C47.34438204 123.44209907 46.46643234 125.49948977 45.58792114 127.55664062 C42.68779327 134.35638579 39.84348391 141.1756386 37 148 C28.42 148 19.84 148 11 148 C14.61806485 138.38907871 18.51640767 128.93550875 22.55657959 119.49639893 C24.43318715 115.11164453 26.3019158 110.72353028 28.171875 106.3359375 C28.56353851 105.41751068 28.95520203 104.49908386 29.35873413 103.55282593 C33.47979444 93.88490487 37.56861819 84.20343962 41.65353394 74.52020264 C42.86687306 71.64426304 44.08092313 68.76862453 45.29516602 65.89306641 C48.45035657 58.41990673 51.60523122 50.9466491 54.74285889 43.46609497 C55.53941205 41.56734404 56.33711779 39.66908209 57.13525391 37.77099609 C58.05290894 35.58752336 58.96814981 33.4030336 59.88037109 31.21728516 C60.2717627 30.28706543 60.6631543 29.3568457 61.06640625 28.3984375 C61.39584229 27.61130371 61.72527832 26.82416992 62.06469727 26.01318359 C63 24 63 24 65 21 C50.81 21 36.62 21 22 21 C22 27.93 22 34.86 22 42 C14.74 42 7.48 42 0 42 C0 28.14 0 14.28 0 0 Z " fill="#EAEAEA" transform="translate(316,147)"/>
<path d="M0 0 C7.92 0 15.84 0 24 0 C24 48.84 24 97.68 24 148 C16.41 148 8.82 148 1 148 C0.67 107.08 0.34 66.16 0 24 C-8.91 29.94 -8.91 29.94 -18 36 C-18.66 36 -19.32 36 -20 36 C-20 36.66 -20 37.32 -20 38 C-20.66 38 -21.32 38 -22 38 C-23.33428272 30.43613207 -24.51365953 22.40215716 -22 15 C-17.01421502 9.03324873 -9.91423077 5.45149863 -3.04125977 2.03369141 C-1.05937395 1.16316721 -1.05937395 1.16316721 0 0 Z " fill="#EAEAEA" transform="translate(272,147)"/>
<path d="M0 0 C24 0 24 0 32 4 C35.60695331 8.04483425 35.42772693 12.37075297 35.38818359 17.55053711 C35.39344055 18.3999437 35.39869751 19.24935028 35.40411377 20.12449646 C35.4172915 22.92563396 35.4085828 25.7262007 35.3984375 28.52734375 C35.40045906 30.47880665 35.40337119 32.43026881 35.40713501 34.38172913 C35.41155551 38.46964721 35.40513678 42.55736848 35.39111328 46.64526367 C35.37403297 51.87865106 35.38385707 57.11157647 35.40183067 62.34494686 C35.41268556 66.37447065 35.40921413 70.40388543 35.4014473 74.43341255 C35.39944942 76.36267718 35.40189006 78.29195178 35.40888596 80.22120476 C35.41652718 82.92109147 35.40485839 85.62023668 35.38818359 88.32006836 C35.39729263 89.51022552 35.39729263 89.51022552 35.40658569 90.72442627 C35.35209378 95.5006102 34.96615275 99.05989625 32 103 C23 107 23 107 0 107 C0 71.69 0 36.38 0 0 Z " fill="#202020" transform="translate(168,165)"/>
<path d="M0 0 C5.26822575 2.06782151 8.58383974 4.8511049 11 10 C11.4544024 13.37300865 11.44421445 16.72143056 11.43359375 20.12109375 C11.4388356 21.09861099 11.44407745 22.07612823 11.44947815 23.08326721 C11.45588996 25.14672904 11.45457226 27.21022747 11.44604492 29.27368164 C11.43753821 32.42335392 11.46630341 35.57121002 11.49804688 38.72070312 C11.49965917 40.72916613 11.49908082 42.73763232 11.49609375 44.74609375 C11.51294472 46.15259438 11.51294472 46.15259438 11.53013611 47.58750916 C11.47032426 53.2259719 10.82285908 56.56282228 7 61 C1.95817952 64.90998323 -2.05934202 65.62974659 -8.41015625 65.39453125 C-12.06029926 64.83847628 -14.24655804 63.40926171 -17 61 C-17.5775 60.525625 -18.155 60.05125 -18.75 59.5625 C-22.50812307 54.86484616 -22.30708328 49.72748169 -22.30078125 44.0078125 C-22.30506638 43.14364716 -22.3093515 42.27948181 -22.31376648 41.38912964 C-22.31949598 39.56525547 -22.32002023 37.74135846 -22.31567383 35.91748047 C-22.31251841 33.14120056 -22.33597405 30.36599173 -22.36132812 27.58984375 C-22.36360186 25.81250134 -22.36430427 24.03515607 -22.36328125 22.2578125 C-22.372491 21.4346756 -22.38170074 20.6115387 -22.39118958 19.76345825 C-22.34442065 13.87556409 -21.5026796 8.84019109 -17.46484375 4.2578125 C-11.49545803 -0.16960913 -7.41544233 -0.88945333 0 0 Z " fill="#EAEAEA" transform="translate(227,335)"/>
<path d="M0 0 C23.64705882 0 23.64705882 0 30 6 C31.69997101 8.82872111 32.25361811 10.93030764 32.2746582 14.21435547 C32.28895622 15.44616043 32.28895622 15.44616043 32.30354309 16.70285034 C32.30263168 17.5820816 32.30172028 18.46131287 32.30078125 19.3671875 C32.30506638 20.27953156 32.3093515 21.19187561 32.31376648 22.13186646 C32.31950377 24.06007051 32.32001447 25.9882962 32.31567383 27.91650391 C32.3125188 30.85747492 32.33596326 33.79743491 32.36132812 36.73828125 C32.36360176 38.61458207 32.36430432 40.49088558 32.36328125 42.3671875 C32.372491 43.2423703 32.38170074 44.1175531 32.39118958 45.01925659 C32.35293898 50.10092665 31.81565142 53.59660701 29 58 C20.92814649 65.85943632 11.23513597 63 0 63 C0 42.21 0 21.42 0 0 Z " fill="#EAEAEA" transform="translate(53,336)"/>
<path d="M0 0 C20 0 20 0 26 4 C28.94641598 9.2181454 28.77274441 15.18566102 28 21 C26.68792554 23.99445564 25.07462234 26.48081573 23 29 C23.99 29.33 24.98 29.66 26 30 C29.9992053 36.35722729 29.89584614 42.71710267 29 50 C27.04050347 55.20977252 24.99182477 57.50408762 20 60 C13.4 60 6.8 60 0 60 C0 40.2 0 20.4 0 0 Z " fill="#EAEAEA" transform="translate(326,336)"/>
<path d="M0 0 C22 0 22 0 28 3 C32.67060388 8.06893297 32.67092149 12.88450275 32.625 19.4375 C32.65722656 20.35337891 32.68945312 21.26925781 32.72265625 22.21289062 C32.73103384 28.04788487 31.76986381 31.34666578 27.77880859 35.64477539 C21.62937169 40.3298597 17.06913545 39 9 39 C9 46.92 9 54.84 9 63 C6.03 63 3.06 63 0 63 C0 42.21 0 21.42 0 0 Z " fill="#EAEAEA" transform="translate(167,336)"/>
<path d="M0 0 C2.64 0 5.28 0 8 0 C8 20.13 8 40.26 8 61 C5.03 61 2.06 61 -1 61 C-2.37530966 56.94929835 -3.74420187 52.89649654 -5.10766602 48.84179688 C-5.57050696 47.4681837 -6.03497405 46.09511716 -6.5012207 44.72265625 C-7.17848341 42.72804832 -7.84949482 40.73142046 -8.51953125 38.734375 C-8.92276611 37.54038086 -9.32600098 36.34638672 -9.74145508 35.11621094 C-11.36611424 29.80258272 -12.65236237 24.39055053 -14 19 C-14.33 32.86 -14.66 46.72 -15 61 C-17.31 61 -19.62 61 -22 61 C-22 41.2 -22 21.4 -22 1 C-18.7 1 -15.4 1 -12 1 C-11.59136719 2.23621094 -11.18273437 3.47242188 -10.76171875 4.74609375 C-8.83152021 10.53668938 -6.8231551 16.29945203 -4.8125 22.0625 C-3.554375 25.671875 -2.29625 29.28125 -1 33 C-0.67 22.11 -0.34 11.22 0 0 Z " fill="#EAEAEA" transform="translate(417,335)"/>
<path d="M0 0 C3.63 0 7.26 0 11 0 C14.12329696 13.71674746 17.17074044 27.4436774 19.875 41.25 C20.08987061 42.32491699 20.30474121 43.39983398 20.52612305 44.50732422 C21.53832004 49.76606599 22.25720643 54.64405436 22 60 C19.36 60 16.72 60 14 60 C13.01 54.555 13.01 54.555 12 49 C5.07 48.505 5.07 48.505 -2 48 C-2.2165625 49.85625 -2.2165625 49.85625 -2.4375 51.75 C-2.78688502 54.56504499 -3.20379366 57.2701497 -4 60 C-6.31 60 -8.62 60 -11 60 C-10.45125801 52.81802238 -9.56060646 45.80635155 -8.22265625 38.73046875 C-8.05124619 37.80583328 -7.87983612 36.88119781 -7.70323181 35.92854309 C-7.34343237 33.99462747 -6.98115035 32.06117218 -6.61645508 30.12817383 C-6.06080774 27.17851664 -5.51523452 24.22711786 -4.97070312 21.27539062 C-4.61778354 19.38530528 -4.26428813 17.49532734 -3.91015625 15.60546875 C-3.74862564 14.73037155 -3.58709503 13.85527435 -3.42066956 12.95365906 C-2.57365247 8.4970875 -1.56814424 4.27316044 0 0 Z " fill="#EAEAEA" transform="translate(369,336)"/>
<path d="M0 0 C3.46236126 2.39067801 5.74528805 5.0530761 7.625 8.8125 C7.76059318 11.81724497 7.66799016 14.80318847 7.625 17.8125 C4.655 17.8125 1.685 17.8125 -1.375 17.8125 C-1.5703125 15.79427083 -1.765625 13.77604167 -1.9609375 11.7578125 C-2.23874749 9.58581755 -2.23874749 9.58581755 -4.375 7.8125 C-9.0172434 7.36380827 -9.0172434 7.36380827 -13.3125 8.875 C-15.02578429 11.9992243 -14.79026697 14.31239268 -14.375 17.8125 C-11.68663254 22.65285392 -8.39982773 25.56698222 -3.9375 28.6875 C5.83723125 35.95028155 5.83723125 35.95028155 7.625 41.8125 C8.43925573 47.51229014 8.42139496 52.13122175 5.9375 57.375 C2.92546624 60.54984639 -0.80994934 63.54084494 -5.29296875 64.015625 C-10.67717673 64.12683067 -14.58017945 63.53896659 -19.375 60.8125 C-23.40833678 56.56688234 -24.51244117 53.39546983 -24.4375 47.625 C-24.42847656 46.72394531 -24.41945312 45.82289063 -24.41015625 44.89453125 C-24.39855469 44.20746094 -24.38695312 43.52039063 -24.375 42.8125 C-21.405 42.8125 -18.435 42.8125 -15.375 42.8125 C-15.32601562 43.51117188 -15.27703125 44.20984375 -15.2265625 44.9296875 C-15.15179688 45.83976562 -15.07703125 46.74984375 -15 47.6875 C-14.93039063 48.59242188 -14.86078125 49.49734375 -14.7890625 50.4296875 C-14.57931868 52.99191903 -14.57931868 52.99191903 -12.375 54.8125 C-7.75192131 55.24543171 -7.75192131 55.24543171 -3.4375 53.8125 C-1.67338572 50.4918143 -1.57934604 47.39957327 -2.375 43.8125 C-5.36390925 38.50265744 -10.48336439 35.09679902 -15.2578125 31.50390625 C-20.14482606 27.59970538 -23.84698476 23.10973171 -24.62890625 16.74609375 C-24.92018319 11.19303981 -24.0847906 7.06169635 -20.375 2.8125 C-14.06433559 -2.10981824 -7.53197885 -2.65014071 0 0 Z " fill="#EAEAEA" transform="translate(269.375,336.1875)"/>
<path d="M0 0 C3.82414212 2.70488101 6.07909586 5.36228759 7.5625 9.8125 C7.63052967 11.54045352 7.64745645 13.27085365 7.625 15 C7.61597656 15.90105469 7.60695312 16.80210937 7.59765625 17.73046875 C7.58605469 18.41753906 7.57445312 19.10460937 7.5625 19.8125 C4.9225 19.8125 2.2825 19.8125 -0.4375 19.8125 C-0.46328125 19.05324219 -0.4890625 18.29398437 -0.515625 17.51171875 C-0.57234375 16.51785156 -0.6290625 15.52398437 -0.6875 14.5 C-0.73390625 13.51386719 -0.7803125 12.52773438 -0.828125 11.51171875 C-1.20502532 8.71261637 -1.20502532 8.71261637 -3.29296875 6.98046875 C-6.20261247 5.3957994 -8.17422449 5.39591164 -11.4375 5.8125 C-13.47417615 7.35756466 -14.29823078 8.53396156 -15.4375 10.8125 C-15.54886826 13.68261917 -15.60162079 16.52772291 -15.60546875 19.3984375 C-15.60879715 20.25176666 -15.61212555 21.10509583 -15.61555481 21.98428345 C-15.62062244 23.79160014 -15.62296319 25.59892621 -15.62280273 27.40625 C-15.62498572 30.16942826 -15.64313334 32.9322051 -15.66210938 35.6953125 C-15.66504403 37.45051947 -15.66702834 39.20572833 -15.66796875 40.9609375 C-15.67515427 41.78709564 -15.68233978 42.61325378 -15.68974304 43.46444702 C-15.74712592 48.94917557 -15.74712592 48.94917557 -13.4375 53.8125 C-10.62834526 55.21707737 -8.54939466 55.06145157 -5.4375 54.8125 C-3.137259 53.94134712 -3.137259 53.94134712 -1.4375 51.8125 C-0.7923406 48.92803289 -0.7406984 46.07267508 -0.6875 43.125 C-0.64302734 41.92907227 -0.64302734 41.92907227 -0.59765625 40.70898438 C-0.52705918 38.74403251 -0.48000292 36.77826023 -0.4375 34.8125 C-2.7475 34.8125 -5.0575 34.8125 -7.4375 34.8125 C-7.4375 32.5025 -7.4375 30.1925 -7.4375 27.8125 C-2.4875 27.8125 2.4625 27.8125 7.5625 27.8125 C7.64364826 31.52127584 7.70307594 35.22826511 7.75 38.9375 C7.77513672 39.98421875 7.80027344 41.0309375 7.82617188 42.109375 C7.8797615 47.75414903 7.86478996 51.98848973 4.5625 56.8125 C-0.63400812 61.61927001 -4.8415618 62.1663045 -11.70703125 62.09375 C-15.55285443 61.69761371 -17.62120077 60.41757679 -20.4375 57.8125 C-24.23571439 53.12179345 -23.8890922 48.45267063 -23.87109375 42.69140625 C-23.8763356 41.71388901 -23.88157745 40.73637177 -23.88697815 39.72923279 C-23.89338996 37.66577096 -23.89207226 35.60227253 -23.88354492 33.53881836 C-23.87503821 30.38914608 -23.90380341 27.24128998 -23.93554688 24.09179688 C-23.93715917 22.08333387 -23.93658082 20.07486768 -23.93359375 18.06640625 C-23.94482773 17.12873917 -23.95606171 16.19107208 -23.96763611 15.22499084 C-23.90618138 9.43165383 -23.21136188 6.26708875 -19.4375 1.8125 C-14.21034726 -2.93945704 -6.29084143 -2.17319977 0 0 Z " fill="#EAEAEA" transform="translate(134.4375,337.1875)"/>
<path d="M0 0 C2.64 0 5.28 0 8 0 C8.33 7.59 8.66 15.18 9 23 C13.29 15.41 17.58 7.82 22 0 C24.64 0 27.28 0 30 0 C28.13903753 6.84608617 24.31071228 12.68790534 20.72460938 18.74414062 C20.23412109 19.60330078 19.74363281 20.46246094 19.23828125 21.34765625 C18.5582605 22.50793335 18.5582605 22.50793335 17.86450195 23.69165039 C16.38448038 27.64352951 17.67951662 30.26078679 19.30688477 34.0144043 C19.84627686 35.10664307 20.38566895 36.19888184 20.94140625 37.32421875 C21.22853989 37.91169388 21.51567352 38.49916901 21.81150818 39.10444641 C22.72304602 40.96820399 23.64208115 42.82811422 24.5625 44.6875 C25.48581083 46.55790719 26.40737391 48.42909536 27.32420349 50.3026886 C28.15270038 51.99515003 28.98745401 53.68454436 29.82250977 55.3737793 C31 58 31 58 31 60 C28.36 60 25.72 60 23 60 C22.56917114 59.16807129 22.56917114 59.16807129 22.12963867 58.31933594 C20.81931857 55.79427016 19.50347091 53.27212506 18.1875 50.75 C17.73568359 49.87730469 17.28386719 49.00460937 16.81835938 48.10546875 C16.15610352 46.83896484 16.15610352 46.83896484 15.48046875 45.546875 C15.07723389 44.77182617 14.67399902 43.99677734 14.25854492 43.19824219 C12.99076105 40.98386276 11.57275095 39.00640655 10 37 C8.79729036 39.40541929 8.79683337 41.10366591 8.68359375 43.7890625 C8.64169922 44.73007812 8.59980469 45.67109375 8.55664062 46.640625 C8.51732422 47.62546875 8.47800781 48.6103125 8.4375 49.625 C8.39431641 50.61757813 8.35113281 51.61015625 8.30664062 52.6328125 C8.20038931 55.08839838 8.09835036 57.54408703 8 60 C5.36 60 2.72 60 0 60 C0 40.2 0 20.4 0 0 Z " fill="#EAEAEA" transform="translate(430,336)"/>
<path d="M0 0 C12 0 12 0 16 3 C16.50793457 4.92832947 16.50793457 4.92832947 16.51757812 7.13256836 C16.53018677 7.96030258 16.54279541 8.7880368 16.55578613 9.64085388 C16.54768921 10.53152054 16.53959229 11.42218719 16.53125 12.33984375 C16.5350769 13.2583461 16.53890381 14.17684845 16.54284668 15.1231842 C16.54556868 17.06577652 16.53818734 19.00840532 16.52148438 20.95092773 C16.50010289 23.92319657 16.52126326 26.89304149 16.546875 29.86523438 C16.54423129 31.7526095 16.53910543 33.63998312 16.53125 35.52734375 C16.53934692 36.41598618 16.54744385 37.3046286 16.55578613 38.22019958 C16.54317749 39.05108597 16.53056885 39.88197235 16.51757812 40.73803711 C16.51280457 41.83032875 16.51280457 41.83032875 16.50793457 42.94468689 C16 45 16 45 12 49 C8.04 49 4.08 49 0 49 C0 32.83 0 16.66 0 0 Z " fill="#202020" transform="translate(61,343)"/>
<path d="M0 0 C11.55 0 23.1 0 35 0 C35 2.31 35 4.62 35 7 C30.71 7 26.42 7 22 7 C22 25.48 22 43.96 22 63 C19.03 63 16.06 63 13 63 C13 44.85 13 26.7 13 8 C8.71 8 4.42 8 0 8 C0 5.36 0 2.72 0 0 Z " fill="#EAEAEA" transform="translate(281,336)"/>
<path d="M0 0 C3.5 0.5625 3.5 0.5625 5.68554688 2.02148438 C8.39350855 5.81379668 8.07394896 9.22690691 8.03125 13.78125 C8.0350769 14.67614136 8.03890381 15.57103271 8.04284668 16.49304199 C8.0455652 18.38257982 8.03820816 20.27215532 8.02148438 22.16162109 C8.00007323 25.0526119 8.02128734 27.94111767 8.046875 30.83203125 C8.04423171 32.66927631 8.03910671 34.50651983 8.03125 36.34375 C8.03934692 37.20738159 8.04744385 38.07101318 8.05578613 38.96081543 C7.96284146 44.91432267 7.96284146 44.91432267 5.68554688 48.10351562 C2.43942256 50.27049942 0.3062867 50.17422465 -3.5 49.5625 C-6.57430284 46.77392325 -7.74082463 44.55165173 -8.01757812 40.49414062 C-8.04383474 38.90255379 -8.04713011 37.31047419 -8.03125 35.71875 C-8.0350769 34.87203735 -8.03890381 34.02532471 -8.04284668 33.1529541 C-8.04556139 31.36774502 -8.03823106 29.58249587 -8.02148438 27.79736328 C-8.00006705 25.07103461 -8.02129953 22.34734085 -8.046875 19.62109375 C-8.04423164 17.88280671 -8.0391065 16.1445213 -8.03125 14.40625 C-8.03934692 13.59466431 -8.04744385 12.78307861 -8.05578613 11.94689941 C-7.99103688 8.02201872 -7.7528034 5.98293192 -5.68554688 2.54492188 C-3.5 0.5625 -3.5 0.5625 0 0 Z " fill="#202020" transform="translate(221.5,342.4375)"/>
<path d="M0 0 C2.64 0 5.28 0 8 0 C8 20.79 8 41.58 8 63 C5.36 63 2.72 63 0 63 C0 42.21 0 21.42 0 0 Z " fill="#EAEAEA" transform="translate(94,336)"/>
<path d="M0 0 C2.31 0 4.62 0 7 0 C7 20.13 7 40.26 7 61 C4.69 61 2.38 61 0 61 C0 40.87 0 20.74 0 0 Z " fill="#EAEAEA" transform="translate(151,337)"/>
<path d="M0 0 C3.63 0 7.26 0 11 0 C14.35648374 3.35648374 14.40744521 4.58506425 14.45898438 9.16015625 C14.44834961 10.31837891 14.44834961 10.31837891 14.4375 11.5 C14.45748047 12.27214844 14.47746094 13.04429687 14.49804688 13.83984375 C14.49609375 16.09375 14.49609375 16.09375 14 20 C10 23 10 23 0 23 C0 15.41 0 7.82 0 0 Z " fill="#202020" transform="translate(176,344)"/>
<path d="M0 0 C8 0 8 0 11 1.25 C14.29959494 5.78694304 13.76652548 10.59746945 13 16 C11.5625 19.25 11.5625 19.25 9 21 C6.03 21 3.06 21 0 21 C0 14.07 0 7.14 0 0 Z " fill="#202020" transform="translate(334,368)"/>
<path d="M0 0 C9 0 9 0 11.03125 1.6875 C12.74852945 5.78681223 12.75859033 9.65074879 12 14 C9.9375 16.625 9.9375 16.625 7 18 C4.69 18 2.38 18 0 18 C0 12.06 0 6.12 0 0 Z " fill="#202020" transform="translate(334,343)"/>
<path d="M0 0 C0.33 0 0.66 0 1 0 C2.65 9.24 4.3 18.48 6 28 C2.37 28 -1.26 28 -5 28 C-4.53917719 21.36415152 -3.71650595 14.90795186 -2.5 8.375 C-2.36940186 7.66408203 -2.23880371 6.95316406 -2.10424805 6.22070312 C-1.12726284 1.12726284 -1.12726284 1.12726284 0 0 Z " fill="#202020" transform="translate(374,349)"/>
</svg>
