<svg xmlns="http://www.w3.org/2000/svg" width="28" height="28" viewBox="0 0 24 24" fill="#d4d4d8"><path d="M12 2a10 10 0 100 20 10 10 0 000-20zm7.93 9h-3.15a15.8 15.8 0 00-1.12-4.58A8.03 8.03 0 0119.93 11zM14.9 13a13.6 13.6 0 01-1.26 4.56A8.1 8.1 0 0017.89 13h-2.99zm-2.35 5.84a12.8 12.8 0 01-2.55.43 12.8 12.8 0 01-2.55-.43A12.5 12.5 0 0110.45 13h3.1a12.5 12.5 0 011.99 5.84zM10.45 11h3.1c-.45-2.2-1.2-3.9-1.55-4.84A6.9 6.9 0 0010.45 11zm-2.1 0H5.36a8.03 8.03 0 013.44-4.58A15.8 15.8 0 008.35 11zm0 2H5.36a8.03 8.03 0 003.44 4.58A15.8 15.8 0 008.35 13zm1.8 5.84A6.9 6.9 0 009.6 15.84c.35-.94 1.1-2.64 1.55-4.84h-2.7a12.5 12.5 0 001.99 5.84zm4.2 0a12.5 12.5 0 001.99-5.84h-2.7c.45 2.2 1.2 3.9 1.55 4.84zM15.65 11a15.8 15.8 0 00-1.12-4.58A8.03 8.03 0 0118.64 11h-2.99z"/></svg>
